<?xml version="1.0" encoding="UTF-8"?>
<svg xmlns="http://www.w3.org/2000/svg" xmlns:xlink="http://www.w3.org/1999/xlink" width="120px" height="120px" viewBox="0 0 120 120" version="1.1">
<defs>
<linearGradient id="linear0" gradientUnits="userSpaceOnUse" x1="-102.1206" y1="-471.7104" x2="-102.1206" y2="-365.8784" gradientTransform="matrix(0.594,0,0,-0.792,120.612,-273.73204)">
<stop offset="0" style="stop-color:rgb(12.54902%,45.882353%,73.72549%);stop-opacity:1;"/>
<stop offset="1" style="stop-color:rgb(16.078431%,66.666667%,88.235294%);stop-opacity:1;"/>
</linearGradient>
<linearGradient id="linear1" gradientUnits="userSpaceOnUse" x1="-147.0903" y1="-471.7104" x2="-147.0903" y2="-365.8784" gradientTransform="matrix(0.594,0,0,-0.792,120.612,-273.73204)">
<stop offset="0" style="stop-color:rgb(3.921569%,41.568627%,65.882353%);stop-opacity:1;"/>
<stop offset="1" style="stop-color:rgb(8.627451%,60%,78.431373%);stop-opacity:1;"/>
</linearGradient>
<linearGradient id="linear2" gradientUnits="userSpaceOnUse" x1="-117.1738" y1="-471.7104" x2="-117.1738" y2="-365.8784" gradientTransform="matrix(0.594,0,0,-0.792,120.612,-273.73204)">
<stop offset="0" style="stop-color:rgb(12.54902%,45.882353%,73.72549%);stop-opacity:1;"/>
<stop offset="1" style="stop-color:rgb(16.078431%,66.666667%,88.235294%);stop-opacity:1;"/>
</linearGradient>
<linearGradient id="linear3" gradientUnits="userSpaceOnUse" x1="-87.1641" y1="-471.7104" x2="-87.1641" y2="-365.8784" gradientTransform="matrix(0.594,0,0,-0.792,120.612,-273.73204)">
<stop offset="0" style="stop-color:rgb(3.921569%,41.568627%,65.882353%);stop-opacity:1;"/>
<stop offset="1" style="stop-color:rgb(8.627451%,60%,78.431373%);stop-opacity:1;"/>
</linearGradient>
<linearGradient id="linear4" gradientUnits="userSpaceOnUse" x1="-57.2451" y1="-471.7104" x2="-57.2451" y2="-365.8784" gradientTransform="matrix(0.594,0,0,-0.792,120.612,-273.73204)">
<stop offset="0" style="stop-color:rgb(12.54902%,45.882353%,73.72549%);stop-opacity:1;"/>
<stop offset="1" style="stop-color:rgb(16.078431%,66.666667%,88.235294%);stop-opacity:1;"/>
</linearGradient>
<clipPath id="clip1">
  <path d="M 34 33 L 86 33 L 86 86 L 34 86 Z M 34 33 "/>
</clipPath>
<clipPath id="clip2">
  <path d="M 85.386719 59.496094 C 84.71875 56.980469 84.941406 52.6875 84.609375 52.09375 C 82.5 48.242188 74.945312 47.652344 71.503906 42.613281 C 72.058594 40.097656 70.835938 38.171875 69.617188 36.542969 C 67.726562 34.765625 65.171875 35.507812 63.171875 36.246094 C 60.953125 35.65625 58.839844 34.46875 56.621094 33.730469 C 51.734375 32.988281 46.847656 37.582031 46.847656 37.582031 C 43.292969 40.542969 37.851562 46.761719 35.183594 50.316406 C 35.851562 50.464844 36.515625 49.722656 37.292969 49.722656 L 42.402344 47.945312 C 40.292969 50.316406 35.851562 54.316406 34.519531 57.574219 C 36.074219 56.832031 39.40625 54.460938 41.070312 54.167969 C 39.628906 55.796875 36.628906 59.054688 35.628906 61.125 C 35.738281 61.273438 35.628906 61.421875 35.628906 61.570312 C 36.851562 60.683594 39.847656 58.3125 41.292969 58.164062 C 39.847656 60.089844 37.292969 63.941406 36.738281 66.457031 C 37.960938 65.421875 41.070312 63.199219 42.402344 62.605469 C 42.070312 63.644531 41.40625 64.382812 40.960938 65.273438 C 40.292969 66.605469 38.847656 68.234375 38.847656 69.863281 C 39.960938 68.53125 41.292969 67.347656 42.625 66.457031 C 42.070312 68.085938 40.960938 69.421875 40.625 71.492188 C 41.515625 70.308594 43.179688 69.714844 44.292969 69.269531 L 44.179688 69.421875 C 44.070312 69.566406 42.847656 70.75 41.960938 72.085938 C 42.734375 72.085938 42.179688 71.9375 43.179688 72.230469 L 43.738281 72.230469 C 43.515625 72.382812 43.179688 72.675781 42.847656 72.824219 C 42.402344 73.121094 41.847656 73.566406 41.40625 73.863281 C 43.515625 77.414062 46.070312 80.378906 49.066406 82.300781 C 52.953125 84.820312 57.175781 85.710938 61.507812 84.96875 C 61.507812 84.671875 61.394531 84.375 61.285156 83.933594 C 61.175781 83.488281 61.0625 83.191406 61.0625 82.746094 C 62.507812 79.191406 61.730469 72.972656 65.503906 70.457031 C 68.058594 68.679688 68.28125 67.789062 71.171875 68.53125 C 72.722656 68.972656 76.167969 70.457031 77.722656 70.011719 C 79.167969 68.972656 79.945312 68.382812 81.277344 67.199219 C 82.832031 67.644531 83.386719 67.347656 83.945312 66.308594 C 83.386719 67.347656 84.941406 62.460938 85.609375 60.683594 Z M 85.386719 59.496094 "/>
</clipPath>
<clipPath id="clip3">
  <path d="M 34 33 L 43 33 L 43 86 L 34 86 Z M 34 33 "/>
</clipPath>
<clipPath id="clip4">
  <path d="M 85.386719 59.496094 C 84.71875 56.980469 84.941406 52.6875 84.609375 52.09375 C 82.5 48.242188 74.945312 47.652344 71.503906 42.613281 C 72.058594 40.097656 70.835938 38.171875 69.617188 36.542969 C 67.726562 34.765625 65.171875 35.507812 63.171875 36.246094 C 60.953125 35.65625 58.839844 34.46875 56.621094 33.730469 C 51.734375 32.988281 46.847656 37.582031 46.847656 37.582031 C 43.292969 40.542969 37.851562 46.761719 35.183594 50.316406 C 35.851562 50.464844 36.515625 49.722656 37.292969 49.722656 L 42.402344 47.945312 C 40.292969 50.316406 35.851562 54.316406 34.519531 57.574219 C 36.074219 56.832031 39.40625 54.460938 41.070312 54.167969 C 39.628906 55.796875 36.628906 59.054688 35.628906 61.125 C 35.738281 61.273438 35.628906 61.421875 35.628906 61.570312 C 36.851562 60.683594 39.847656 58.3125 41.292969 58.164062 C 39.847656 60.089844 37.292969 63.941406 36.738281 66.457031 C 37.960938 65.421875 41.070312 63.199219 42.402344 62.605469 C 42.070312 63.644531 41.40625 64.382812 40.960938 65.273438 C 40.292969 66.605469 38.847656 68.234375 38.847656 69.863281 C 39.960938 68.53125 41.292969 67.347656 42.625 66.457031 C 42.070312 68.085938 40.960938 69.421875 40.625 71.492188 C 41.515625 70.308594 43.179688 69.714844 44.292969 69.269531 L 44.179688 69.421875 C 44.070312 69.566406 42.847656 70.75 41.960938 72.085938 C 42.734375 72.085938 42.179688 71.9375 43.179688 72.230469 L 43.738281 72.230469 C 43.515625 72.382812 43.179688 72.675781 42.847656 72.824219 C 42.402344 73.121094 41.847656 73.566406 41.40625 73.863281 C 43.515625 77.414062 46.070312 80.378906 49.066406 82.300781 C 52.953125 84.820312 57.175781 85.710938 61.507812 84.96875 C 61.507812 84.671875 61.394531 84.375 61.285156 83.933594 C 61.175781 83.488281 61.0625 83.191406 61.0625 82.746094 C 62.507812 79.191406 61.730469 72.972656 65.503906 70.457031 C 68.058594 68.679688 68.28125 67.789062 71.171875 68.53125 C 72.722656 68.972656 76.167969 70.457031 77.722656 70.011719 C 79.167969 68.972656 79.945312 68.382812 81.277344 67.199219 C 82.832031 67.644531 83.386719 67.347656 83.945312 66.308594 C 83.386719 67.347656 84.941406 62.460938 85.609375 60.683594 Z M 85.386719 59.496094 "/>
</clipPath>
<clipPath id="clip5">
  <path d="M 42 33 L 61 33 L 61 86 L 42 86 Z M 42 33 "/>
</clipPath>
<clipPath id="clip6">
  <path d="M 85.386719 59.496094 C 84.71875 56.980469 84.941406 52.6875 84.609375 52.09375 C 82.5 48.242188 74.945312 47.652344 71.503906 42.613281 C 72.058594 40.097656 70.835938 38.171875 69.617188 36.542969 C 67.726562 34.765625 65.171875 35.507812 63.171875 36.246094 C 60.953125 35.65625 58.839844 34.46875 56.621094 33.730469 C 51.734375 32.988281 46.847656 37.582031 46.847656 37.582031 C 43.292969 40.542969 37.851562 46.761719 35.183594 50.316406 C 35.851562 50.464844 36.515625 49.722656 37.292969 49.722656 L 42.402344 47.945312 C 40.292969 50.316406 35.851562 54.316406 34.519531 57.574219 C 36.074219 56.832031 39.40625 54.460938 41.070312 54.167969 C 39.628906 55.796875 36.628906 59.054688 35.628906 61.125 C 35.738281 61.273438 35.628906 61.421875 35.628906 61.570312 C 36.851562 60.683594 39.847656 58.3125 41.292969 58.164062 C 39.847656 60.089844 37.292969 63.941406 36.738281 66.457031 C 37.960938 65.421875 41.070312 63.199219 42.402344 62.605469 C 42.070312 63.644531 41.40625 64.382812 40.960938 65.273438 C 40.292969 66.605469 38.847656 68.234375 38.847656 69.863281 C 39.960938 68.53125 41.292969 67.347656 42.625 66.457031 C 42.070312 68.085938 40.960938 69.421875 40.625 71.492188 C 41.515625 70.308594 43.179688 69.714844 44.292969 69.269531 L 44.179688 69.421875 C 44.070312 69.566406 42.847656 70.75 41.960938 72.085938 C 42.734375 72.085938 42.179688 71.9375 43.179688 72.230469 L 43.738281 72.230469 C 43.515625 72.382812 43.179688 72.675781 42.847656 72.824219 C 42.402344 73.121094 41.847656 73.566406 41.40625 73.863281 C 43.515625 77.414062 46.070312 80.378906 49.066406 82.300781 C 52.953125 84.820312 57.175781 85.710938 61.507812 84.96875 C 61.507812 84.671875 61.394531 84.375 61.285156 83.933594 C 61.175781 83.488281 61.0625 83.191406 61.0625 82.746094 C 62.507812 79.191406 61.730469 72.972656 65.503906 70.457031 C 68.058594 68.679688 68.28125 67.789062 71.171875 68.53125 C 72.722656 68.972656 76.167969 70.457031 77.722656 70.011719 C 79.167969 68.972656 79.945312 68.382812 81.277344 67.199219 C 82.832031 67.644531 83.386719 67.347656 83.945312 66.308594 C 83.386719 67.347656 84.941406 62.460938 85.609375 60.683594 Z M 85.386719 59.496094 "/>
</clipPath>
<clipPath id="clip7">
  <path d="M 60 33 L 78 33 L 78 86 L 60 86 Z M 60 33 "/>
</clipPath>
<clipPath id="clip8">
  <path d="M 85.386719 59.496094 C 84.71875 56.980469 84.941406 52.6875 84.609375 52.09375 C 82.5 48.242188 74.945312 47.652344 71.503906 42.613281 C 72.058594 40.097656 70.835938 38.171875 69.617188 36.542969 C 67.726562 34.765625 65.171875 35.507812 63.171875 36.246094 C 60.953125 35.65625 58.839844 34.46875 56.621094 33.730469 C 51.734375 32.988281 46.847656 37.582031 46.847656 37.582031 C 43.292969 40.542969 37.851562 46.761719 35.183594 50.316406 C 35.851562 50.464844 36.515625 49.722656 37.292969 49.722656 L 42.402344 47.945312 C 40.292969 50.316406 35.851562 54.316406 34.519531 57.574219 C 36.074219 56.832031 39.40625 54.460938 41.070312 54.167969 C 39.628906 55.796875 36.628906 59.054688 35.628906 61.125 C 35.738281 61.273438 35.628906 61.421875 35.628906 61.570312 C 36.851562 60.683594 39.847656 58.3125 41.292969 58.164062 C 39.847656 60.089844 37.292969 63.941406 36.738281 66.457031 C 37.960938 65.421875 41.070312 63.199219 42.402344 62.605469 C 42.070312 63.644531 41.40625 64.382812 40.960938 65.273438 C 40.292969 66.605469 38.847656 68.234375 38.847656 69.863281 C 39.960938 68.53125 41.292969 67.347656 42.625 66.457031 C 42.070312 68.085938 40.960938 69.421875 40.625 71.492188 C 41.515625 70.308594 43.179688 69.714844 44.292969 69.269531 L 44.179688 69.421875 C 44.070312 69.566406 42.847656 70.75 41.960938 72.085938 C 42.734375 72.085938 42.179688 71.9375 43.179688 72.230469 L 43.738281 72.230469 C 43.515625 72.382812 43.179688 72.675781 42.847656 72.824219 C 42.402344 73.121094 41.847656 73.566406 41.40625 73.863281 C 43.515625 77.414062 46.070312 80.378906 49.066406 82.300781 C 52.953125 84.820312 57.175781 85.710938 61.507812 84.96875 C 61.507812 84.671875 61.394531 84.375 61.285156 83.933594 C 61.175781 83.488281 61.0625 83.191406 61.0625 82.746094 C 62.507812 79.191406 61.730469 72.972656 65.503906 70.457031 C 68.058594 68.679688 68.28125 67.789062 71.171875 68.53125 C 72.722656 68.972656 76.167969 70.457031 77.722656 70.011719 C 79.167969 68.972656 79.945312 68.382812 81.277344 67.199219 C 82.832031 67.644531 83.386719 67.347656 83.945312 66.308594 C 83.386719 67.347656 84.941406 62.460938 85.609375 60.683594 Z M 85.386719 59.496094 "/>
</clipPath>
<clipPath id="clip9">
  <path d="M 77 33 L 86 33 L 86 86 L 77 86 Z M 77 33 "/>
</clipPath>
<clipPath id="clip10">
  <path d="M 85.386719 59.496094 C 84.71875 56.980469 84.941406 52.6875 84.609375 52.09375 C 82.5 48.242188 74.945312 47.652344 71.503906 42.613281 C 72.058594 40.097656 70.835938 38.171875 69.617188 36.542969 C 67.726562 34.765625 65.171875 35.507812 63.171875 36.246094 C 60.953125 35.65625 58.839844 34.46875 56.621094 33.730469 C 51.734375 32.988281 46.847656 37.582031 46.847656 37.582031 C 43.292969 40.542969 37.851562 46.761719 35.183594 50.316406 C 35.851562 50.464844 36.515625 49.722656 37.292969 49.722656 L 42.402344 47.945312 C 40.292969 50.316406 35.851562 54.316406 34.519531 57.574219 C 36.074219 56.832031 39.40625 54.460938 41.070312 54.167969 C 39.628906 55.796875 36.628906 59.054688 35.628906 61.125 C 35.738281 61.273438 35.628906 61.421875 35.628906 61.570312 C 36.851562 60.683594 39.847656 58.3125 41.292969 58.164062 C 39.847656 60.089844 37.292969 63.941406 36.738281 66.457031 C 37.960938 65.421875 41.070312 63.199219 42.402344 62.605469 C 42.070312 63.644531 41.40625 64.382812 40.960938 65.273438 C 40.292969 66.605469 38.847656 68.234375 38.847656 69.863281 C 39.960938 68.53125 41.292969 67.347656 42.625 66.457031 C 42.070312 68.085938 40.960938 69.421875 40.625 71.492188 C 41.515625 70.308594 43.179688 69.714844 44.292969 69.269531 L 44.179688 69.421875 C 44.070312 69.566406 42.847656 70.75 41.960938 72.085938 C 42.734375 72.085938 42.179688 71.9375 43.179688 72.230469 L 43.738281 72.230469 C 43.515625 72.382812 43.179688 72.675781 42.847656 72.824219 C 42.402344 73.121094 41.847656 73.566406 41.40625 73.863281 C 43.515625 77.414062 46.070312 80.378906 49.066406 82.300781 C 52.953125 84.820312 57.175781 85.710938 61.507812 84.96875 C 61.507812 84.671875 61.394531 84.375 61.285156 83.933594 C 61.175781 83.488281 61.0625 83.191406 61.0625 82.746094 C 62.507812 79.191406 61.730469 72.972656 65.503906 70.457031 C 68.058594 68.679688 68.28125 67.789062 71.171875 68.53125 C 72.722656 68.972656 76.167969 70.457031 77.722656 70.011719 C 79.167969 68.972656 79.945312 68.382812 81.277344 67.199219 C 82.832031 67.644531 83.386719 67.347656 83.945312 66.308594 C 83.386719 67.347656 84.941406 62.460938 85.609375 60.683594 Z M 85.386719 59.496094 "/>
</clipPath>
</defs>
<g id="surface1">
<path style=" stroke:none;fill-rule:nonzero;fill:url(#linear0);" d="M 77.722656 16.109375 L 77.722656 15.960938 L 77.722656 16.109375 L 77.613281 15.960938 L 77.613281 16.109375 L 59.953125 25.4375 L 42.179688 16.109375 L 42.179688 15.960938 L 42.070312 16.109375 L 42.070312 15.960938 L 42.070312 16.109375 L 24.300781 25.585938 L 24.300781 99.777344 L 42.070312 90.746094 L 59.953125 99.777344 L 77.722656 90.746094 L 95.605469 99.777344 L 95.605469 25.585938 Z M 77.722656 16.109375 "/>
<path style=" stroke:none;fill-rule:nonzero;fill:url(#linear1);" d="M 24.300781 25.585938 L 24.300781 99.777344 L 42.179688 90.746094 L 42.179688 15.960938 Z M 24.300781 25.585938 "/>
<path style=" stroke:none;fill-rule:nonzero;fill:url(#linear2);" d="M 59.953125 25.585938 L 59.953125 99.777344 L 42.070312 90.746094 L 42.070312 15.960938 Z M 59.953125 25.585938 "/>
<path style=" stroke:none;fill-rule:nonzero;fill:url(#linear3);" d="M 59.953125 25.585938 L 59.953125 99.777344 L 77.722656 90.746094 L 77.722656 15.960938 Z M 59.953125 25.585938 "/>
<path style=" stroke:none;fill-rule:nonzero;fill:url(#linear4);" d="M 95.605469 25.585938 L 95.605469 99.777344 L 77.613281 90.746094 L 77.613281 15.960938 Z M 95.605469 25.585938 "/>
<g clip-path="url(#clip1)" clip-rule="nonzero">
<g clip-path="url(#clip2)" clip-rule="nonzero">
<path style=" stroke:none;fill-rule:nonzero;fill:rgb(100%,100%,100%);fill-opacity:1;" d="M 59.953125 29.878906 C 78.230469 29.878906 93.050781 43.273438 93.050781 59.792969 C 93.050781 76.316406 78.230469 89.707031 59.953125 89.707031 C 41.675781 89.707031 26.855469 76.316406 26.855469 59.792969 C 26.855469 43.273438 41.675781 29.878906 59.953125 29.878906 Z M 59.953125 29.878906 "/>
</g>
</g>
<g clip-path="url(#clip3)" clip-rule="nonzero">
<g clip-path="url(#clip4)" clip-rule="nonzero">
<path style=" stroke:none;fill-rule:nonzero;fill:rgb(94.901961%,94.901961%,94.901961%);fill-opacity:1;" d="M 24.746094 26.917969 L 24.746094 102 L 42.402344 92.667969 L 42.402344 17.441406 Z M 24.746094 26.917969 "/>
</g>
</g>
<g clip-path="url(#clip5)" clip-rule="nonzero">
<g clip-path="url(#clip6)" clip-rule="nonzero">
<path style=" stroke:none;fill-rule:nonzero;fill:rgb(100%,100%,100%);fill-opacity:1;" d="M 60.0625 26.917969 L 60.0625 102 L 42.292969 92.667969 L 42.292969 17.441406 Z M 60.0625 26.917969 "/>
</g>
</g>
<g clip-path="url(#clip7)" clip-rule="nonzero">
<g clip-path="url(#clip8)" clip-rule="nonzero">
<path style=" stroke:none;fill-rule:nonzero;fill:rgb(94.901961%,94.901961%,94.901961%);fill-opacity:1;" d="M 60.0625 26.917969 L 60.0625 102 L 77.613281 92.667969 L 77.613281 17.441406 Z M 60.0625 26.917969 "/>
</g>
</g>
<g clip-path="url(#clip9)" clip-rule="nonzero">
<g clip-path="url(#clip10)" clip-rule="nonzero">
<path style=" stroke:none;fill-rule:nonzero;fill:rgb(100%,100%,100%);fill-opacity:1;" d="M 95.382812 26.917969 L 95.382812 102 L 77.613281 92.667969 L 77.613281 17.441406 Z M 95.382812 26.917969 "/>
</g>
</g>
</g>
</svg>
